<?xml version="1.0" standalone="no"?>
<!DOCTYPE svg PUBLIC "-//W3C//DTD SVG 20010904//EN"
 "http://www.w3.org/TR/2001/REC-SVG-20010904/DTD/svg10.dtd">
<svg version="1.0" xmlns="http://www.w3.org/2000/svg"
 width="550.000000pt" height="353.000000pt" viewBox="0 0 550.000000 353.000000"
 preserveAspectRatio="xMidYMid meet">
<metadata>
Created by potrace 1.16, written by Peter Selinger 2001-2019
</metadata>
<g transform="translate(0.000000,353.000000) scale(0.100000,-0.100000)"
fill="#000000" stroke="none">
<path d="M706 2173 c-19 -19 158 -143 203 -143 6 0 19 -4 29 -9 41 -20 91 -34
137 -38 28 -3 54 -9 59 -14 6 -5 49 -9 97 -9 48 0 100 -5 116 -12 17 -7 89
-12 182 -13 85 -1 149 1 143 3 -7 2 -12 10 -12 18 0 8 -10 14 -25 14 -14 0
-25 4 -25 10 0 5 -11 12 -25 16 -14 3 -25 10 -25 15 0 5 -16 9 -36 9 -19 0
-45 5 -56 11 -21 11 -89 23 -198 35 -30 4 -59 10 -65 14 -5 4 -35 11 -65 15
-30 4 -59 11 -65 15 -5 4 -32 10 -60 13 -48 5 -119 19 -195 37 -53 13 -107 19
-114 13z"/>
<path d="M2132 2038 c-9 -12 -13 -27 -28 -113 -3 -16 -12 -44 -20 -62 -8 -17
-14 -40 -14 -52 0 -12 -4 -21 -10 -21 -5 0 -10 -12 -10 -27 0 -16 -7 -37 -15
-47 -8 -11 -15 -32 -15 -47 0 -15 -4 -31 -10 -34 -5 -3 -10 -19 -10 -34 0 -15
-7 -36 -15 -47 -8 -10 -15 -34 -15 -51 0 -18 -4 -33 -10 -33 -5 0 -10 -9 -10
-20 0 -17 7 -20 50 -20 38 0 50 4 50 15 0 8 5 15 10 15 6 0 10 10 10 21 0 12
8 43 17 70 l18 49 96 0 c89 0 96 -1 106 -22 19 -41 43 -113 43 -131 0 -14 10
-17 60 -17 58 0 69 5 52 26 -8 9 -28 67 -57 169 -10 33 -21 64 -26 70 -5 5 -9
21 -9 36 0 15 -4 30 -9 33 -5 4 -12 24 -16 46 -4 22 -11 42 -16 46 -5 3 -9 17
-9 32 0 15 -7 36 -15 46 -8 11 -15 29 -15 41 0 12 -6 33 -12 48 -12 25 -18 27
-74 27 -37 0 -65 -5 -72 -12z m88 -126 c0 -26 22 -104 42 -148 5 -11 8 -36 6
-55 -3 -33 -4 -34 -52 -37 -89 -6 -114 13 -87 66 12 23 41 121 41 139 0 23 30
74 40 68 6 -4 10 -18 10 -33z"/>
<path d="M2672 2040 c-18 -4 -35 -10 -37 -12 -3 -2 -5 -137 -5 -299 l-1 -294
45 -3 45 -3 3 123 3 123 50 3 c41 2 56 -1 78 -20 15 -13 27 -31 27 -41 0 -9 4
-17 9 -17 5 0 12 -22 16 -50 4 -27 11 -52 16 -56 5 -3 9 -18 9 -35 0 -29 1
-29 55 -29 62 0 62 -3 29 98 -8 23 -14 51 -14 62 0 10 -4 22 -10 25 -5 3 -10
14 -10 24 0 9 -13 31 -29 47 -29 30 -30 31 -10 47 10 9 22 17 25 17 12 0 33
29 40 54 3 14 10 29 15 32 12 7 12 71 0 78 -5 3 -12 18 -16 33 -8 32 -50 71
-85 79 -14 3 -38 10 -54 15 -34 11 -147 10 -194 -1z m192 -81 c19 -11 42 -34
51 -51 17 -34 20 -78 6 -78 -5 0 -12 -11 -15 -24 -8 -32 -76 -58 -137 -54
l-44 3 -3 99 c-2 64 1 103 9 112 17 21 92 17 133 -7z"/>
<path d="M3187 2043 c-4 -3 -7 -143 -7 -310 l0 -303 50 0 50 0 0 310 0 310
-43 0 c-24 0 -47 -3 -50 -7z"/>
<path d="M3412 2008 l3 -43 85 -5 85 -5 3 -262 2 -263 50 0 50 0 0 259 c0 296
-9 271 100 271 l68 0 4 41 c2 22 2 42 -1 45 -2 2 -105 4 -228 4 l-224 0 3 -42z"/>
<path d="M3990 1740 l0 -310 50 0 50 0 0 310 0 310 -50 0 -50 0 0 -310z"/>
<path d="M4495 2038 c-92 -31 -195 -109 -195 -149 0 -9 -5 -19 -10 -21 -11 -3
-32 -95 -32 -138 0 -37 17 -111 33 -145 33 -70 79 -109 158 -134 75 -24 139
-26 209 -10 61 15 66 20 50 54 -12 26 -14 27 -69 22 -31 -4 -80 -4 -109 0 -43
5 -59 13 -90 44 -20 21 -44 53 -54 72 -21 45 -22 165 -1 193 8 10 15 25 15 33
0 8 18 32 40 52 33 31 50 39 96 45 30 3 78 3 106 0 54 -8 77 7 78 49 0 38
-145 59 -225 33z"/>
</g>
</svg>
